<svg width="353" height="353" viewBox="0 0 353 353" fill="none" xmlns="http://www.w3.org/2000/svg">
<path fill-rule="evenodd" clip-rule="evenodd" d="M262.625 322.171C260.037 323.819 257.527 325.348 255.095 326.76C252.664 328.251 250.272 329.584 247.919 330.761C245.487 332.016 243.134 333.193 240.86 334.291C238.507 335.389 236.193 336.409 233.918 337.35C231.644 338.292 229.369 339.155 227.095 339.939C224.82 340.723 222.545 341.469 220.271 342.175C218.075 342.802 215.839 343.43 213.565 344.057C211.29 344.606 208.976 345.116 206.623 345.587C204.349 346.058 202.035 346.528 199.682 346.999C197.329 347.391 194.937 347.744 192.505 348.058C190.152 348.45 187.721 348.764 185.211 348.999C182.701 349.313 180.152 349.627 177.564 349.941C174.975 350.176 172.309 350.411 169.564 350.647C166.897 350.96 164.112 351.235 161.21 351.47C158.387 351.706 155.524 351.941 152.622 352.176C149.641 352.412 146.622 352.569 143.563 352.647C140.504 352.804 137.406 352.922 134.268 353C131.131 353 127.994 352.961 124.856 352.882C121.641 352.725 118.425 352.529 115.209 352.294C111.993 351.98 108.817 351.549 105.679 351C102.464 350.451 99.2479 349.745 96.0321 348.882C92.8163 348.097 89.6397 347.117 86.5024 345.94C83.3651 344.763 80.2669 343.43 77.208 341.939C74.1491 340.449 71.1294 338.723 68.149 336.762C65.1685 334.879 62.2272 332.761 59.3252 330.408C56.5016 328.055 53.7172 325.427 50.972 322.524C48.2268 319.7 45.5601 316.602 42.9718 313.229C40.4619 309.856 37.9913 306.169 35.5598 302.168C33.2068 298.246 30.9322 294.01 28.7361 289.46C26.54 284.989 24.4615 280.243 22.5006 275.222C20.5398 270.202 18.6966 264.985 16.9711 259.573C15.2455 254.238 13.6376 248.708 12.1474 242.982C10.6572 237.255 9.28457 231.411 8.02963 225.449C6.85313 219.488 5.79428 213.447 4.85308 207.329C3.83344 201.21 3.00989 195.013 2.38242 188.737C1.67652 182.54 1.12748 176.343 0.735315 170.146C0.343147 163.949 0.107846 157.791 0.0294126 151.672C-0.049021 145.554 0.0294126 139.513 0.264713 133.552C0.578447 127.59 1.00983 121.746 1.55887 116.019C2.1079 110.293 2.85302 104.723 3.79422 99.3107C4.73543 93.898 5.87271 88.6814 7.20608 83.661C8.46102 78.6406 9.91204 73.8554 11.5591 69.3057C13.2062 64.8343 15.0494 60.5983 17.0887 56.5977C19.128 52.597 21.3633 48.8709 23.7948 45.4193C26.1478 41.8893 28.6577 38.6339 31.3244 35.653C33.9911 32.6721 36.8147 29.9266 39.7952 27.4163C42.7757 24.8277 45.8346 22.4743 48.972 20.3563C52.1877 18.2383 55.4819 16.3164 58.8546 14.5907C62.2272 12.8649 65.6391 11.296 69.0902 9.884C72.6197 8.55044 76.2276 7.33456 79.914 6.23633C83.5219 5.21656 87.1691 4.31444 90.8555 3.53C94.6203 2.74556 98.3851 2.118 102.15 1.64733C105.836 1.17667 109.562 0.784444 113.327 0.470667C117.091 0.235333 120.817 0.0784444 124.503 0C128.268 0 131.955 0.0392222 135.563 0.117667C139.249 0.196111 142.857 0.353 146.386 0.588333C149.916 0.902111 153.367 1.21589 156.74 1.52967C160.112 1.92189 163.407 2.35333 166.622 2.824C169.838 3.21622 173.015 3.72611 176.152 4.35367C179.289 4.90278 182.348 5.53033 185.329 6.23633C188.309 6.94233 191.25 7.72678 194.152 8.58967C197.054 9.37411 199.917 10.2762 202.741 11.296C205.565 12.2373 208.349 13.2571 211.094 14.3553C213.839 15.4536 216.545 16.6302 219.212 17.8853C221.879 19.1404 224.545 20.474 227.212 21.886C229.801 23.298 232.428 24.7884 235.095 26.3573C237.683 28.0047 240.271 29.6912 242.86 31.417C245.448 33.1428 248.036 34.9862 250.625 36.9473C253.213 38.83 255.801 40.8303 258.39 42.9483C261.056 45.0663 263.684 47.2628 266.272 49.5377C268.939 51.8126 271.606 54.2051 274.272 56.7153C276.939 59.2256 279.645 61.8142 282.39 64.4813C285.057 67.1484 287.763 69.9332 290.508 72.8357C293.175 75.6597 295.842 78.6013 298.508 81.6607C301.175 84.6416 303.803 87.7009 306.391 90.8387C308.979 93.9764 311.528 97.1927 314.038 100.487C316.548 103.782 318.94 107.116 321.215 110.489C323.568 113.862 325.842 117.274 328.039 120.726C330.156 124.178 332.196 127.668 334.156 131.198C336.117 134.728 337.96 138.298 339.686 141.906C341.333 145.436 342.862 149.005 344.274 152.614C345.686 156.301 346.941 159.948 348.039 163.557C349.137 167.165 350.078 170.774 350.863 174.382C351.569 178.069 352.118 181.717 352.51 185.325C352.902 188.933 353.059 192.503 352.98 196.033C352.902 199.641 352.627 203.21 352.157 206.74C351.686 210.192 350.98 213.683 350.039 217.213C349.176 220.664 348.118 224.077 346.863 227.45C345.608 230.823 344.235 234.157 342.745 237.451C341.176 240.746 339.451 244.001 337.568 247.218C335.764 250.434 333.803 253.572 331.686 256.631C329.646 259.69 327.45 262.71 325.097 265.691C322.823 268.672 320.47 271.575 318.038 274.399C315.607 277.301 313.097 280.086 310.509 282.753C307.92 285.499 305.293 288.126 302.626 290.637C299.959 293.225 297.293 295.696 294.626 298.05C291.881 300.403 289.135 302.717 286.39 304.992C283.724 307.188 281.018 309.267 278.272 311.228C275.606 313.268 272.939 315.229 270.272 317.112C267.684 318.916 265.135 320.602 262.625 322.171Z" fill="url(#paint0_linear_5_101)"/>
<defs>
<linearGradient id="paint0_linear_5_101" x1="176.5" y1="0" x2="176.5" y2="353" gradientUnits="userSpaceOnUse">
<stop stop-color="#31CF70"/>
<stop offset="1" stop-color="#97EBB8"/>
</linearGradient>
</defs>
</svg>
