<svg width="301" height="301" viewBox="0 0 301 301" fill="none" xmlns="http://www.w3.org/2000/svg">
<path fill-rule="evenodd" clip-rule="evenodd" d="M284.125 294.429C282.058 295.629 279.725 296.629 277.125 297.429C274.592 298.229 271.858 298.829 268.925 299.229C265.992 299.629 262.892 299.895 259.625 300.029C256.358 300.095 252.925 300.029 249.325 299.829C245.725 299.629 242.025 299.329 238.225 298.929C234.425 298.529 230.525 298.029 226.525 297.429C222.525 296.895 218.425 296.262 214.225 295.529C210.092 294.795 205.892 294.029 201.625 293.229C197.358 292.429 193.058 291.629 188.725 290.829C184.458 289.962 180.158 289.129 175.825 288.329C171.492 287.529 167.192 286.729 162.925 285.929C158.658 285.195 154.458 284.495 150.325 283.829C146.125 283.229 141.992 282.662 137.925 282.129C133.925 281.595 129.958 281.095 126.025 280.629C122.092 280.162 118.225 279.729 114.425 279.329C110.625 278.929 106.925 278.562 103.325 278.229C99.6583 277.829 96.0917 277.462 92.625 277.129C89.1583 276.729 85.7583 276.329 82.425 275.929C79.0917 275.529 75.8583 275.062 72.725 274.529C69.525 274.062 66.4583 273.529 63.525 272.929C60.525 272.395 57.625 271.762 54.825 271.029C52.025 270.295 49.3583 269.495 46.825 268.629C44.225 267.762 41.725 266.795 39.325 265.729C36.925 264.595 34.625 263.395 32.425 262.129C30.225 260.795 28.1583 259.362 26.225 257.829C24.225 256.295 22.3583 254.629 20.625 252.829C18.8917 251.095 17.2583 249.229 15.725 247.229C14.1917 245.295 12.7583 243.229 11.425 241.029C10.1583 238.895 8.99167 236.695 7.925 234.429C6.79167 232.162 5.79167 229.829 4.925 227.429C4.05833 225.029 3.325 222.562 2.725 220.029C2.05833 217.562 1.525 215.062 1.125 212.529C0.725 209.995 0.425 207.462 0.225 204.929C0.025 202.329 -0.0416667 199.762 0.025 197.229C0.0916667 194.629 0.258333 192.062 0.525 189.529C0.791667 186.995 1.19167 184.495 1.725 182.029C2.19167 179.562 2.79167 177.162 3.525 174.829C4.25833 172.429 5.09167 170.095 6.025 167.829C7.025 165.495 8.09167 163.229 9.225 161.029C10.3583 158.829 11.625 156.629 13.025 154.429C14.3583 152.295 15.7583 150.162 17.225 148.029C18.7583 145.895 20.325 143.762 21.925 141.629C23.5917 139.495 25.2917 137.362 27.025 135.229C28.825 133.095 30.6583 130.962 32.525 128.829C34.3917 126.629 36.2917 124.429 38.225 122.229C40.225 120.029 42.225 117.795 44.225 115.529C46.225 113.262 48.2583 110.929 50.325 108.529C52.3917 106.129 54.4583 103.695 56.525 101.229C58.5917 98.7619 60.6583 96.2286 62.725 93.6286C64.7917 90.9619 66.8583 88.2619 68.925 85.5286C71.0583 82.7952 73.125 79.9952 75.125 77.1286C77.1917 74.2619 79.2583 71.3619 81.325 68.4286C83.4583 65.4952 85.5583 62.5952 87.625 59.7286C89.6917 56.7952 91.7917 53.8952 93.925 51.0286C96.0583 48.1619 98.1917 45.3286 100.325 42.5286C102.525 39.7286 104.725 37.0286 106.925 34.4286C109.125 31.7619 111.358 29.2286 113.625 26.8286C115.892 24.3619 118.225 22.0286 120.625 19.8286C122.958 17.6952 125.325 15.6619 127.725 13.7286C130.192 11.8619 132.692 10.1619 135.225 8.62857C137.758 7.02857 140.358 5.6619 143.025 4.52857C145.692 3.39524 148.425 2.4619 151.225 1.72857C153.958 0.995238 156.792 0.495238 159.725 0.228571C162.592 -0.0380953 165.492 -0.0714286 168.425 0.128571C171.425 0.261905 174.425 0.628571 177.425 1.22857C180.492 1.7619 183.525 2.49524 186.525 3.42857C189.592 4.29524 192.625 5.3619 195.625 6.62857C198.625 7.89524 201.625 9.29524 204.625 10.8286C207.558 12.3619 210.492 14.0286 213.425 15.8286C216.292 17.6286 219.125 19.5286 221.925 21.5286C224.658 23.5952 227.358 25.7286 230.025 27.9286C232.692 30.1952 235.225 32.5286 237.625 34.9286C240.092 37.3286 242.458 39.7952 244.725 42.3286C246.992 44.8619 249.125 47.4619 251.125 50.1286C253.125 52.7286 254.992 55.3952 256.725 58.1286C258.458 60.8619 260.092 63.6286 261.625 66.4286C263.158 69.2286 264.558 72.0952 265.825 75.0286C267.092 77.8952 268.292 80.7952 269.425 83.7286C270.492 86.7286 271.492 89.7286 272.425 92.7286C273.358 95.7952 274.225 98.8952 275.025 102.029C275.825 105.162 276.592 108.329 277.325 111.529C277.992 114.729 278.625 117.962 279.225 121.229C279.892 124.562 280.492 127.929 281.025 131.329C281.625 134.662 282.192 138.062 282.725 141.529C283.325 144.995 283.892 148.529 284.425 152.129C285.025 155.662 285.625 159.262 286.225 162.929C286.825 166.595 287.458 170.295 288.125 174.029C288.792 177.762 289.458 181.529 290.125 185.329C290.858 189.129 291.592 192.962 292.325 196.829C293.058 200.695 293.758 204.529 294.425 208.329C295.158 212.129 295.825 215.929 296.425 219.729C297.025 223.462 297.592 227.162 298.125 230.829C298.592 234.429 298.992 237.995 299.325 241.529C299.658 244.995 299.858 248.395 299.925 251.729C300.058 254.995 300.058 258.162 299.925 261.229C299.725 264.295 299.425 267.229 299.025 270.029C298.558 272.829 297.925 275.429 297.125 277.829C296.258 280.295 295.225 282.562 294.025 284.629C292.825 286.695 291.425 288.562 289.825 290.229C288.158 291.829 286.258 293.229 284.125 294.429Z" fill="url(#paint0_linear_5_102)"/>
<defs>
<linearGradient id="paint0_linear_5_102" x1="150.012" y1="0" x2="150.012" y2="300.054" gradientUnits="userSpaceOnUse">
<stop stop-color="#9BF0BB"/>
<stop offset="1" stop-color="#68E391"/>
</linearGradient>
</defs>
</svg>
