<svg width="300" height="300" viewBox="0 0 300 300" fill="none" xmlns="http://www.w3.org/2000/svg">
<path fill-rule="evenodd" clip-rule="evenodd" d="M265.267 258.9C263.267 260.9 261.167 262.833 258.967 264.7C256.767 266.5 254.5 268.267 252.167 270C249.833 271.667 247.467 273.267 245.067 274.8C242.6 276.333 240.1 277.767 237.567 279.1C235.033 280.5 232.467 281.8 229.867 283C227.267 284.267 224.633 285.433 221.967 286.5C219.3 287.633 216.6 288.667 213.867 289.6C211.133 290.533 208.367 291.4 205.567 292.2C202.833 293.067 200.067 293.833 197.267 294.5C194.467 295.167 191.667 295.8 188.867 296.4C186.067 296.933 183.3 297.433 180.567 297.9C177.767 298.367 174.967 298.733 172.167 299C169.367 299.333 166.6 299.567 163.867 299.7C161.133 299.9 158.367 300 155.567 300C152.833 300 150.133 299.933 147.467 299.8C144.733 299.733 142.033 299.567 139.367 299.3C136.7 298.967 134.067 298.6 131.467 298.2C128.8 297.8 126.167 297.3 123.567 296.7C121.033 296.1 118.5 295.433 115.967 294.7C113.433 293.9 110.933 293.067 108.467 292.2C106.067 291.267 103.667 290.267 101.267 289.2C98.8667 288.067 96.5333 286.9 94.2667 285.7C91.9333 284.433 89.6667 283.133 87.4667 281.8C85.2667 280.4 83.1333 278.967 81.0667 277.5C78.9333 275.967 76.9 274.4 74.9667 272.8C72.9667 271.133 71.0333 269.433 69.1667 267.7C67.3 265.9 65.5 264.1 63.7667 262.3C62.0333 260.433 60.3667 258.5 58.7667 256.5C57.1667 254.567 55.6667 252.567 54.2667 250.5C52.8 248.433 51.4333 246.333 50.1667 244.2C48.9 242.067 47.6667 239.9 46.4667 237.7C45.3333 235.433 44.2333 233.167 43.1667 230.9C42.1 228.567 41.1 226.167 40.1667 223.7C39.1667 221.3 38.2 218.833 37.2667 216.3C36.4 213.7 35.5 211.067 34.5667 208.4C33.7 205.733 32.8 203 31.8667 200.2C30.9333 197.4 30 194.533 29.0667 191.6C28.1333 188.667 27.1667 185.667 26.1667 182.6C25.1667 179.533 24.1333 176.4 23.0667 173.2C22 169.933 20.8667 166.6 19.6667 163.2C18.4667 159.8 17.2333 156.367 15.9667 152.9C14.7667 149.367 13.5333 145.8 12.2667 142.2C11.0667 138.6 9.9 134.967 8.76667 131.3C7.63333 127.7 6.56667 124.067 5.56667 120.4C4.56667 116.733 3.66667 113.067 2.86667 109.4C2.13333 105.733 1.5 102.133 0.966667 98.6C0.5 95 0.2 91.4333 0.0666667 87.9C-0.0666667 84.4333 0 81 0.266667 77.6C0.533333 74.2667 1.03333 71 1.76667 67.8C2.56667 64.6 3.6 61.5 4.86667 58.5C6.13333 55.5 7.66667 52.6 9.46667 49.8C11.2667 47 13.2667 44.3 15.4667 41.7C17.7333 39.1667 20.1667 36.7 22.7667 34.3C25.3667 31.9667 28.1667 29.7333 31.1667 27.6C34.1 25.4667 37.2 23.4667 40.4667 21.6C43.6667 19.6667 47.0333 17.8667 50.5667 16.2C54.0333 14.6 57.6 13.0667 61.2667 11.6C64.9333 10.2 68.6333 8.93333 72.3667 7.8C76.1667 6.6 80 5.56667 83.8667 4.7C87.7333 3.76667 91.6 3 95.4667 2.4C99.4 1.73333 103.3 1.23333 107.167 0.9C111.033 0.5 114.9 0.233333 118.767 0.1C122.633 -0.0333333 126.5 -0.0333333 130.367 0.1C134.233 0.233333 138.033 0.466667 141.767 0.8C145.567 1.2 149.333 1.7 153.067 2.3C156.8 2.9 160.467 3.63333 164.067 4.5C167.667 5.3 171.233 6.23333 174.767 7.3C178.3 8.36667 181.767 9.56667 185.167 10.9C188.5 12.1667 191.8 13.5667 195.067 15.1C198.333 16.5667 201.5 18.1667 204.567 19.9C207.633 21.6333 210.633 23.4333 213.567 25.3C216.433 27.2333 219.267 29.2333 222.067 31.3C224.8 33.4333 227.467 35.6333 230.067 37.9C232.733 40.1 235.267 42.4 237.667 44.8C240.133 47.2 242.533 49.6333 244.867 52.1C247.2 54.6333 249.467 57.2 251.667 59.8C253.8 62.4 255.9 65.0667 257.967 67.8C259.967 70.4667 261.933 73.2 263.867 76C265.8 78.7333 267.667 81.5 269.467 84.3C271.2 87.1 272.9 89.9333 274.567 92.8C276.233 95.6667 277.833 98.5333 279.367 101.4C280.9 104.267 282.333 107.133 283.667 110C285.067 112.933 286.367 115.833 287.567 118.7C288.833 121.633 290 124.567 291.067 127.5C292.133 130.433 293.1 133.367 293.967 136.3C294.833 139.233 295.633 142.167 296.367 145.1C297.033 148.033 297.633 151 298.167 154C298.633 156.933 299.033 159.867 299.367 162.8C299.633 165.8 299.833 168.767 299.967 171.7C300.033 174.633 300 177.567 299.867 180.5C299.667 183.5 299.4 186.467 299.067 189.4C298.733 192.333 298.267 195.233 297.667 198.1C297.067 200.967 296.367 203.833 295.567 206.7C294.833 209.5 293.967 212.3 292.967 215.1C291.967 217.833 290.867 220.567 289.667 223.3C288.533 225.967 287.267 228.6 285.867 231.2C284.533 233.733 283.067 236.233 281.467 238.7C279.933 241.167 278.3 243.567 276.567 245.9C274.9 248.233 273.1 250.467 271.167 252.6C269.3 254.8 267.333 256.9 265.267 258.9Z" fill="url(#paint0_linear_5_99)"/>
<defs>
<linearGradient id="paint0_linear_5_99" x1="150" y1="0" x2="150" y2="300" gradientUnits="userSpaceOnUse">
<stop stop-color="#55DB88"/>
<stop offset="1" stop-color="#42A868"/>
</linearGradient>
</defs>
</svg>
