<svg width="381" height="284" viewBox="0 0 381 284" fill="none" xmlns="http://www.w3.org/2000/svg">
<path fill-rule="evenodd" clip-rule="evenodd" d="M380.229 120.612C379.854 123.051 379.075 125.545 377.894 128.095C376.712 130.645 375.201 133.182 373.36 135.707C371.47 138.278 369.318 140.909 366.905 143.6C364.495 146.198 361.847 148.834 358.963 151.508C356.127 154.137 353.147 156.854 350.021 159.661C346.899 162.373 343.682 165.129 340.368 167.928C337.054 170.727 333.763 173.551 330.494 176.399C327.131 179.244 323.861 182.139 320.683 185.085C317.509 187.937 314.45 190.864 311.506 193.866C308.561 196.868 305.806 199.877 303.238 202.893C300.671 205.91 298.268 208.956 296.029 212.032C293.744 215.059 291.601 218.091 289.599 221.129C287.597 224.166 285.738 227.162 284.022 230.117C282.212 233.067 280.451 235.972 278.739 238.832C277.075 241.647 275.461 244.416 273.895 247.14C272.284 249.815 270.702 252.374 269.147 254.815C267.543 257.302 265.92 259.67 264.278 261.919C262.591 264.12 260.862 266.177 259.091 268.091C257.272 270.051 255.387 271.843 253.439 273.467C251.445 275.043 249.364 276.427 247.196 277.618C244.979 278.855 242.651 279.923 240.211 280.821C237.82 281.674 235.342 282.335 232.777 282.804C230.163 283.318 227.484 283.665 224.742 283.844C222.048 283.978 219.287 283.991 216.461 283.884C213.683 283.732 210.887 283.461 208.071 283.071C205.259 282.587 202.428 281.985 199.577 281.264C196.772 280.591 193.997 279.755 191.252 278.755C188.506 277.754 185.789 276.637 183.1 275.403C180.41 274.169 177.796 272.82 175.257 271.356C172.718 269.892 170.276 268.337 167.933 266.691C165.544 264.997 163.228 263.235 160.986 261.404C158.744 259.574 156.552 257.651 154.411 255.636C152.222 253.666 150.058 251.626 147.921 249.517C145.832 247.362 143.697 245.206 141.514 243.047C139.381 240.844 137.224 238.616 135.045 236.363C132.817 234.156 130.544 231.9 128.225 229.595C125.858 227.335 123.419 225.096 120.908 222.878C118.401 220.566 115.774 218.32 113.026 216.141C110.278 213.961 107.411 211.8 104.426 209.659C101.441 207.517 98.2879 205.44 94.9676 203.427C91.6473 201.415 88.2083 199.421 84.6506 197.447C81.1872 195.476 77.6051 193.524 73.9043 191.591C70.2489 189.707 66.5935 187.823 62.9381 185.939C59.1884 184.052 55.5103 182.144 51.9038 180.215C48.2973 178.285 44.7623 176.335 41.2988 174.364C37.8354 172.393 34.5151 170.381 31.3379 168.326C28.1606 166.272 25.151 164.153 22.3088 161.97C19.5156 159.741 16.937 157.45 14.5731 155.096C12.2056 152.836 10.1034 150.421 8.26659 147.852C6.47508 145.331 4.99422 142.704 3.82402 139.97C2.69914 137.286 1.86225 134.471 1.31335 131.526C0.760884 128.674 0.492842 125.786 0.509224 122.862C0.574497 119.893 0.875302 116.932 1.41164 113.98C2.04219 111.032 2.88384 108.116 3.93657 105.231C4.9893 102.346 6.27577 99.5171 7.796 96.7442C9.31623 93.9713 11.0684 91.3015 13.0526 88.7349C14.9879 86.2136 17.108 83.7937 19.413 81.4751C21.7633 79.2053 24.2722 77.1067 26.9398 75.1793C29.6074 73.2518 32.4091 71.5181 35.3451 69.9782C38.2321 68.4836 41.3231 67.209 44.6181 66.1544C47.8188 65.0962 51.1066 64.2301 54.4815 63.5559C57.9018 62.9306 61.3882 62.4258 64.9408 62.0414C68.4934 61.657 72.1123 61.3931 75.7973 61.2496C79.4823 61.1061 83.19 60.987 86.9203 60.8924C90.6507 60.7978 94.3566 60.7258 98.038 60.6766C101.814 60.6308 105.544 60.5362 109.229 60.3927C112.869 60.2003 116.488 59.9364 120.086 59.6009C123.684 59.2654 127.193 58.785 130.613 58.1597C134.033 57.5344 137.342 56.7398 140.539 55.7759C143.785 54.7666 146.921 53.5409 149.948 52.0988C152.926 50.702 155.794 49.0887 158.552 47.259C161.355 45.4782 164.023 43.5507 166.554 41.4766C169.131 39.4513 171.618 37.3283 174.013 35.1075C176.454 32.9355 178.803 30.7129 181.059 28.4396C183.36 26.2152 185.59 24.0117 187.748 21.8291C189.907 19.6465 192.037 17.5807 194.139 15.6318C196.196 13.634 198.248 11.7776 200.294 10.0625C202.341 8.34734 204.378 6.86773 206.406 5.62366C208.438 4.28538 210.46 3.22974 212.47 2.45674C214.481 1.68374 216.528 1.19516 218.611 0.991005C220.695 0.786852 222.814 0.867123 224.971 1.23182C227.033 1.59294 229.18 2.19318 231.412 3.03251C233.645 3.87184 235.916 4.94849 238.225 6.26245C240.537 7.4822 242.912 8.9166 245.35 10.5657C247.837 12.1694 250.388 13.9407 253.003 15.8795C255.574 17.7695 258.257 19.7817 261.054 21.9161C263.851 24.0505 266.738 26.2826 269.716 28.6126C272.694 30.9425 275.789 33.3005 279.001 35.6865C282.213 38.0725 285.544 40.4394 288.993 42.7872C292.438 45.2292 296.027 47.6294 299.759 49.988C303.442 52.3918 307.221 54.7521 311.096 57.0688C314.967 59.4798 318.84 61.8436 322.715 64.1604C326.59 66.4771 330.418 68.7921 334.198 71.1053C337.93 73.4638 341.57 75.7716 345.116 78.0288C348.66 80.3801 352.039 82.7017 355.255 84.9935C358.47 87.2852 361.448 89.6152 364.189 91.9834C366.884 94.3026 369.32 96.6356 371.495 98.9823C373.671 101.329 375.445 103.684 376.818 106.048C378.236 108.46 379.253 110.881 379.869 113.31C380.439 115.69 380.559 118.124 380.229 120.612Z" fill="url(#paint0_linear_5_98)"/>
<defs>
<linearGradient id="paint0_linear_5_98" x1="90.0256" y1="15.9957" x2="293.975" y2="235.999" gradientUnits="userSpaceOnUse">
<stop stop-color="#9BF0BB"/>
<stop offset="1" stop-color="#68E391"/>
</linearGradient>
</defs>
</svg>
